<svg id="visual" viewBox="0 0 900 600" width="900" height="600" xmlns="http://www.w3.org/2000/svg" xmlns:xlink="http://www.w3.org/1999/xlink" version="1.1"><rect x="0" y="0" width="900" height="600" fill="#881337"></rect><defs><linearGradient id="grad1_0" x1="33.3%" y1="0%" x2="100%" y2="100%"><stop offset="20%" stop-color="#881337" stop-opacity="1"></stop><stop offset="80%" stop-color="#881337" stop-opacity="1"></stop></linearGradient></defs><defs><linearGradient id="grad2_0" x1="0%" y1="0%" x2="66.7%" y2="100%"><stop offset="20%" stop-color="#881337" stop-opacity="1"></stop><stop offset="80%" stop-color="#881337" stop-opacity="1"></stop></linearGradient></defs><g transform="translate(900, 0)"><path d="M0 486.7C-67.7 444.6 -135.4 402.5 -212 367.2C-288.6 331.9 -374.3 303.4 -421.5 243.4C-468.8 183.3 -477.8 91.7 -486.7 0L0 0Z" fill="#065f46"></path></g><g transform="translate(0, 600)"><path d="M0 -486.7C67.9 -445.1 135.9 -403.4 212.5 -368.1C289.1 -332.7 374.4 -303.7 421.5 -243.4C468.7 -183.1 477.7 -91.5 486.7 0L0 0Z" fill="#065f46"></path></g></svg>