<svg id="visual" viewBox="0 0 900 600" width="900" height="600" xmlns="http://www.w3.org/2000/svg" xmlns:xlink="http://www.w3.org/1999/xlink" version="1.1"><rect x="0" y="0" width="900" height="600" fill="#881337"></rect><defs><linearGradient id="grad1_0" x1="33.3%" y1="0%" x2="100%" y2="100%"><stop offset="20%" stop-color="#881337" stop-opacity="1"></stop><stop offset="80%" stop-color="#881337" stop-opacity="1"></stop></linearGradient></defs><defs><linearGradient id="grad2_0" x1="0%" y1="0%" x2="66.7%" y2="100%"><stop offset="20%" stop-color="#881337" stop-opacity="1"></stop><stop offset="80%" stop-color="#881337" stop-opacity="1"></stop></linearGradient></defs><g transform="translate(900, 0)"><path d="M0 486.7C-99.3 482.2 -198.6 477.6 -243.4 421.5C-288.2 365.5 -278.6 257.8 -310 179C-341.5 100.2 -414.1 50.1 -486.7 0L0 0Z" fill="#065f46"></path></g><g transform="translate(0, 600)"><path d="M0 -486.7C80.7 -467.3 161.5 -447.8 236.5 -409.6C311.5 -371.5 380.8 -314.8 421.5 -243.4C462.3 -172 474.5 -86 486.7 0L0 0Z" fill="#065f46"></path></g></svg>