<svg id="visual" viewBox="0 0 900 600" width="900" height="600" xmlns="http://www.w3.org/2000/svg" xmlns:xlink="http://www.w3.org/1999/xlink" version="1.1"><rect x="0" y="0" width="900" height="600" fill="#881337"></rect><defs><linearGradient id="grad1_0" x1="33.3%" y1="0%" x2="100%" y2="100%"><stop offset="20%" stop-color="#881337" stop-opacity="1"></stop><stop offset="80%" stop-color="#881337" stop-opacity="1"></stop></linearGradient></defs><defs><linearGradient id="grad2_0" x1="0%" y1="0%" x2="66.7%" y2="100%"><stop offset="20%" stop-color="#881337" stop-opacity="1"></stop><stop offset="80%" stop-color="#881337" stop-opacity="1"></stop></linearGradient></defs><g transform="translate(900, 0)"><path d="M0 486.7C-101.2 483.3 -202.5 479.9 -243.4 421.5C-284.3 363.2 -264.8 249.9 -295.3 170.5C-325.8 91.1 -406.3 45.5 -486.7 0L0 0Z" fill="#065f46"></path></g><g transform="translate(0, 600)"><path d="M0 -486.7C98.5 -481.7 196.9 -476.7 243.4 -421.5C289.8 -366.4 284.2 -261.1 316.1 -182.5C348 -103.9 417.4 -51.9 486.7 0L0 0Z" fill="#065f46"></path></g></svg>