<svg id="visual" viewBox="0 0 900 600" width="900" height="600" xmlns="http://www.w3.org/2000/svg" xmlns:xlink="http://www.w3.org/1999/xlink" version="1.1"><rect x="0" y="0" width="900" height="600" fill="#881337"></rect><defs><linearGradient id="grad1_0" x1="33.3%" y1="0%" x2="100%" y2="100%"><stop offset="20%" stop-color="#881337" stop-opacity="1"></stop><stop offset="80%" stop-color="#881337" stop-opacity="1"></stop></linearGradient></defs><defs><linearGradient id="grad2_0" x1="0%" y1="0%" x2="66.7%" y2="100%"><stop offset="20%" stop-color="#881337" stop-opacity="1"></stop><stop offset="80%" stop-color="#881337" stop-opacity="1"></stop></linearGradient></defs><g transform="translate(900, 0)"><path d="M0 486.7C-101.9 483.7 -203.9 480.7 -243.4 421.5C-282.9 362.4 -260 247.1 -290.1 167.5C-320.3 87.9 -403.5 43.9 -486.7 0L0 0Z" fill="#065f46"></path></g><g transform="translate(0, 600)"><path d="M0 -486.7C65.8 -441.4 131.6 -396 208.5 -361.1C285.4 -326.2 373.3 -301.8 421.5 -243.4C469.8 -184.9 478.3 -92.5 486.7 0L0 0Z" fill="#065f46"></path></g></svg>