<svg id="visual" viewBox="0 0 900 600" width="900" height="600" xmlns="http://www.w3.org/2000/svg" xmlns:xlink="http://www.w3.org/1999/xlink" version="1.1"><rect x="0" y="0" width="900" height="600" fill="#881337"></rect><defs><linearGradient id="grad1_0" x1="33.3%" y1="0%" x2="100%" y2="100%"><stop offset="20%" stop-color="#881337" stop-opacity="1"></stop><stop offset="80%" stop-color="#881337" stop-opacity="1"></stop></linearGradient></defs><defs><linearGradient id="grad2_0" x1="0%" y1="0%" x2="66.7%" y2="100%"><stop offset="20%" stop-color="#881337" stop-opacity="1"></stop><stop offset="80%" stop-color="#881337" stop-opacity="1"></stop></linearGradient></defs><g transform="translate(900, 0)"><path d="M0 486.7C-55.9 424.3 -111.9 361.8 -190 329.1C-268.1 296.3 -368.4 293.3 -421.5 243.4C-474.7 193.5 -480.7 96.7 -486.7 0L0 0Z" fill="#065f46"></path></g><g transform="translate(0, 600)"><path d="M0 -486.7C104.1 -485 208.3 -483.2 243.4 -421.5C278.5 -359.9 244.6 -238.2 273.7 -158C302.7 -77.8 394.7 -38.9 486.7 0L0 0Z" fill="#065f46"></path></g></svg>